<svg xmlns="http://www.w3.org/2000/svg" xmlns:xlink="http://www.w3.org/1999/xlink" width="500" zoomAndPan="magnify" viewBox="0 0 375 374.999991" height="500" preserveAspectRatio="xMidYMid meet" version="1.0"><defs><g/><clipPath id="2bda4c22ee"><path d="M 58 46.636719 L 315 46.636719 L 315 137 L 58 137 Z M 58 46.636719 " clip-rule="nonzero"/></clipPath><clipPath id="8eed63f9c7"><path d="M 120.578125 129.074219 L 163.335938 129.074219 L 163.335938 157.945312 L 120.578125 157.945312 Z M 120.578125 129.074219 " clip-rule="nonzero"/></clipPath><clipPath id="93c68e7fb7"><path d="M 0.578125 0.0742188 L 43.335938 0.0742188 L 43.335938 28.945312 L 0.578125 28.945312 Z M 0.578125 0.0742188 " clip-rule="nonzero"/></clipPath><clipPath id="d2558056ca"><rect x="0" width="44" y="0" height="29"/></clipPath><clipPath id="200c6e1b6a"><path d="M 0.03125 229.296875 L 375 229.296875 L 375 296.796875 L 0.03125 296.796875 Z M 0.03125 229.296875 " clip-rule="nonzero"/></clipPath><clipPath id="7d6d0abaca"><path d="M 33.6875 229.296875 L 341.3125 229.296875 C 350.238281 229.296875 358.800781 232.84375 365.113281 239.15625 C 371.421875 245.46875 374.96875 254.027344 374.96875 262.953125 C 374.96875 271.878906 371.421875 280.441406 365.113281 286.753906 C 358.800781 293.0625 350.238281 296.609375 341.3125 296.609375 L 33.6875 296.609375 C 24.761719 296.609375 16.199219 293.0625 9.886719 286.753906 C 3.578125 280.441406 0.03125 271.878906 0.03125 262.953125 C 0.03125 254.027344 3.578125 245.46875 9.886719 239.15625 C 16.199219 232.84375 24.761719 229.296875 33.6875 229.296875 Z M 33.6875 229.296875 " clip-rule="nonzero"/></clipPath></defs><path fill="#fe5201" d="M 186.363281 198.800781 C 184.078125 202.195312 180.511719 201.347656 175.664062 196.25 C 175.90625 192.257812 178.171875 187.105469 182.457031 180.796875 C 176.84375 180.289062 172.996094 179.554688 170.910156 178.589844 C 184.441406 180.460938 191.855469 178.308594 193.15625 172.136719 C 198.980469 171.601562 201.980469 171.886719 202.15625 172.984375 L 186.875 195.402344 C 186.621094 195.960938 187.019531 196.582031 188.0625 197.269531 Z M 204.535156 199.988281 C 199.164062 200.214844 196.785156 199.363281 197.402344 197.441406 L 200.289062 197.441406 C 215.867188 176.59375 223.226562 164.820312 222.367188 162.117188 C 216.363281 157.371094 206.628906 155.332031 193.15625 156.003906 C 195.660156 153.847656 197.414062 149.601562 198.421875 143.265625 C 199.714844 146.265625 201.300781 147.792969 203.175781 147.851562 C 204.835938 149.730469 207.535156 150.285156 209.800781 149.210938 L 225.253906 151.925781 L 227.800781 152.945312 L 226.441406 153.964844 L 227.121094 185.042969 C 217.585938 201.558594 210.113281 207.902344 204.707031 204.0625 C 206.808594 202.363281 206.75 201.003906 204.535156 199.988281 Z M 240.367188 209.667969 C 240.367188 204.320312 244.703125 199.988281 250.050781 199.988281 C 255.394531 199.988281 259.730469 204.320312 259.730469 209.667969 C 259.730469 215.015625 255.394531 219.347656 250.050781 219.347656 C 244.703125 219.347656 240.367188 215.015625 240.367188 209.667969 Z M 166.664062 187.25 C 158.867188 178.59375 146.671875 175.398438 135.632812 179.128906 C 124.597656 182.855469 116.832031 192.792969 115.886719 204.402344 C 128.878906 208.46875 143.992188 211.582031 161.230469 213.742188 L 154.777344 213.574219 C 152.910156 217.171875 149.019531 219.246094 144.992188 218.792969 C 140.964844 218.34375 137.628906 215.457031 136.605469 211.535156 C 134.210938 211.597656 130.304688 211.144531 124.886719 210.175781 C 125.285156 221.488281 134.292969 230.605469 145.601562 231.136719 C 156.90625 231.667969 166.734375 223.441406 168.191406 212.214844 C 169.703125 212.484375 170.667969 213.332031 171.078125 214.761719 L 222.707031 214.933594 L 224.066406 210.6875 C 225.855469 211.242188 229.308594 209.65625 234.425781 205.933594 L 228.652344 212.214844 C 229.867188 220.785156 236.03125 227.828125 244.363281 230.167969 C 252.695312 232.507812 261.621094 229.703125 267.121094 223.019531 C 272.621094 216.335938 273.652344 207.035156 269.75 199.308594 L 253.953125 198.289062 L 271.957031 196.082031 C 265.886719 181.949219 255.46875 176.855469 240.707031 180.796875 L 236.125 163.984375 L 238.332031 165.171875 C 241.609375 160.628906 242.253906 154.691406 240.027344 149.550781 C 235.816406 150.058594 233.777344 152.664062 233.914062 157.363281 L 232.726562 147.511719 C 230.0625 144.90625 227.515625 145.019531 225.085938 147.851562 L 213.367188 142.925781 C 213.746094 140.949219 212.019531 139.929688 208.1875 139.871094 C 206.867188 139.992188 206.046875 139.425781 205.722656 138.171875 C 205.613281 132.601562 203.632812 126.65625 199.78125 120.339844 C 200.003906 120.582031 201.332031 119.167969 203.769531 116.09375 C 204.746094 117.363281 206.726562 117.730469 209.714844 117.199219 C 211.871094 112.898438 213.769531 110.546875 215.40625 110.148438 L 215.574219 103.527344 L 223.386719 100.808594 L 210.820312 102.507812 L 205.894531 105.902344 L 209.96875 99.449219 L 218.460938 98.769531 C 217.128906 92.289062 211.683594 87.457031 205.085938 86.90625 C 198.488281 86.359375 192.320312 90.21875 189.929688 96.394531 C 186.675781 104.621094 188.6875 110.566406 195.960938 114.226562 L 194.261719 116.859375 L 191.628906 115.414062 L 190.78125 118.8125 C 178.546875 126.269531 171.925781 141.554688 170.910156 164.664062 C 171.304688 166.144531 172.71875 167.671875 175.15625 169.25 C 169.265625 169.933594 157.660156 169.59375 140.339844 168.230469 C 139.28125 170.519531 139.449219 173.011719 140.851562 175.703125 C 150.945312 174.359375 160.9375 178.828125 166.664062 187.25 Z M 166.664062 187.25 " fill-opacity="1" fill-rule="evenodd"/><path fill="#fe5201" d="M 117.480469 129.269531 L 133.308594 129.269531 L 137.433594 149.21875 L 136.839844 129.269531 L 147.753906 129.269531 L 147.410156 145.269531 L 150.558594 129.269531 L 164.902344 129.269531 C 169.132812 129.269531 173.210938 132.773438 172.59375 136.957031 L 168.753906 162.9375 C 168.136719 167.121094 165.292969 170.628906 161.0625 170.628906 L 122.882812 170.628906 C 118.65625 170.628906 116.054688 167.078125 115.195312 162.9375 L 109.789062 136.957031 C 108.929688 132.816406 113.25 129.269531 117.480469 129.269531 Z M 117.480469 129.269531 " fill-opacity="1" fill-rule="evenodd"/><path fill="#fe5201" d="M 327.933594 165.710938 C 327.546875 171.394531 323.203125 178.679688 314.898438 187.5625 L 314.855469 187.613281 L 314.808594 187.5625 C 306.507812 178.679688 302.164062 171.394531 301.777344 165.710938 C 300.320312 145.105469 329.390625 145.105469 327.933594 165.710938 Z M 314.691406 171.078125 C 318.445312 171.078125 321.492188 168.035156 321.492188 164.277344 C 321.492188 160.523438 318.445312 157.480469 314.691406 157.480469 C 310.933594 157.480469 307.890625 160.523438 307.890625 164.277344 C 307.890625 168.035156 310.933594 171.078125 314.691406 171.078125 Z M 314.691406 171.078125 " fill-opacity="1" fill-rule="evenodd"/><path fill="#fe5201" d="M 73.230469 165.710938 C 72.84375 171.394531 68.5 178.679688 60.199219 187.5625 L 60.152344 187.613281 L 60.109375 187.5625 C 51.804688 178.679688 47.460938 171.394531 47.074219 165.710938 C 45.617188 145.105469 74.691406 145.105469 73.230469 165.710938 Z M 59.988281 171.078125 C 63.746094 171.078125 66.789062 168.035156 66.789062 164.277344 C 66.789062 160.523438 63.746094 157.480469 59.988281 157.480469 C 56.234375 157.480469 53.191406 160.523438 53.191406 164.277344 C 53.191406 168.035156 56.234375 171.078125 59.988281 171.078125 Z M 59.988281 171.078125 " fill-opacity="1" fill-rule="evenodd"/><g clip-path="url(#2bda4c22ee)"><path fill="#fe5201" d="M 64.496094 122.667969 L 64.21875 123.222656 L 63.925781 123.816406 L 63.636719 124.410156 L 63.066406 125.605469 L 62.785156 126.203125 L 62.503906 126.804688 L 62.226562 127.410156 L 61.953125 128.015625 L 61.683594 128.621094 L 61.414062 129.230469 L 61.148438 129.839844 L 60.886719 130.453125 L 60.628906 131.066406 L 60.371094 131.683594 L 59.863281 132.917969 L 59.613281 133.539062 L 59.367188 134.160156 L 59.125 134.785156 L 58.886719 135.410156 L 61.460938 136.394531 L 61.9375 135.167969 L 62.421875 133.949219 L 62.667969 133.34375 L 62.917969 132.738281 L 63.425781 131.535156 L 63.683594 130.933594 L 63.941406 130.335938 L 64.207031 129.742188 L 64.472656 129.144531 L 64.738281 128.550781 L 65.285156 127.371094 L 65.558594 126.785156 L 65.839844 126.195312 L 66.402344 125.03125 L 66.691406 124.449219 L 66.96875 123.894531 Z M 314.101562 129.144531 L 313.871094 128.621094 L 313.050781 126.804688 L 312.769531 126.203125 L 312.488281 125.605469 L 311.917969 124.410156 L 311.628906 123.816406 L 311.335938 123.222656 L 310.742188 122.042969 L 310.441406 121.453125 L 310.136719 120.867188 L 309.832031 120.285156 L 309.214844 119.121094 L 308.898438 118.542969 L 308.585938 117.96875 L 308.265625 117.390625 L 307.945312 116.820312 L 307.871094 116.6875 L 305.472656 118.054688 L 305.539062 118.175781 L 305.855469 118.734375 L 306.167969 119.300781 L 306.476562 119.863281 L 306.785156 120.429688 L 307.089844 121 L 307.691406 122.140625 L 307.988281 122.714844 L 308.574219 123.871094 L 308.863281 124.449219 L 309.433594 125.613281 L 309.714844 126.195312 L 309.992188 126.785156 L 310.269531 127.371094 L 310.542969 127.960938 L 310.8125 128.550781 L 311.082031 129.144531 L 311.347656 129.742188 L 311.578125 130.261719 Z M 303.542969 109.542969 L 303.539062 109.542969 L 303.183594 108.996094 L 302.824219 108.449219 L 302.464844 107.910156 L 302.101562 107.367188 L 301.738281 106.828125 L 300.996094 105.757812 L 300.625 105.226562 L 300.25 104.695312 L 299.871094 104.164062 L 299.492188 103.636719 L 298.726562 102.589844 L 298.339844 102.070312 L 297.949219 101.550781 L 297.558594 101.035156 L 297.164062 100.519531 L 296.769531 100.007812 L 296.371094 99.496094 L 295.566406 98.480469 L 295.378906 98.25 L 293.234375 99.984375 L 293.410156 100.203125 L 293.804688 100.699219 L 294.199219 101.199219 L 294.589844 101.699219 L 295.363281 102.707031 L 295.746094 103.210938 L 296.128906 103.71875 L 296.507812 104.230469 L 296.882812 104.742188 L 297.257812 105.257812 L 297.628906 105.773438 L 298 106.292969 L 298.367188 106.8125 L 298.734375 107.335938 L 299.097656 107.859375 L 299.457031 108.382812 L 299.816406 108.910156 L 300.171875 109.441406 L 300.523438 109.972656 L 301.226562 111.042969 Z M 289.953125 91.890625 L 289.695312 91.609375 L 289.257812 91.132812 L 288.820312 90.660156 L 288.382812 90.191406 L 287.941406 89.722656 L 287.496094 89.253906 L 287.050781 88.792969 L 286.601562 88.328125 L 286.152344 87.871094 L 285.699219 87.410156 L 285.246094 86.957031 L 284.789062 86.503906 L 284.328125 86.050781 L 283.871094 85.601562 L 282.941406 84.710938 L 282.476562 84.269531 L 281.539062 83.394531 L 281.066406 82.957031 L 280.589844 82.523438 L 280.113281 82.09375 L 280.082031 82.0625 L 278.246094 84.121094 L 278.269531 84.144531 L 278.734375 84.566406 L 279.664062 85.417969 L 280.125 85.847656 L 280.582031 86.277344 L 281.496094 87.144531 L 281.949219 87.582031 L 282.847656 88.464844 L 283.296875 88.910156 L 283.742188 89.355469 L 284.625 90.253906 L 285.066406 90.707031 L 285.5 91.164062 L 285.9375 91.621094 L 286.371094 92.078125 L 286.800781 92.539062 L 287.230469 93.003906 L 287.65625 93.46875 L 287.914062 93.753906 Z M 273.699219 76.664062 L 273.25 76.304688 L 272.746094 75.910156 L 272.238281 75.515625 L 271.222656 74.734375 L 270.710938 74.347656 L 270.195312 73.964844 L 269.683594 73.582031 L 269.164062 73.203125 L 268.648438 72.828125 L 268.125 72.453125 L 267.605469 72.078125 L 267.082031 71.710938 L 266.027344 70.976562 L 265.5 70.617188 L 264.4375 69.898438 L 263.902344 69.542969 L 262.832031 68.839844 L 262.382812 68.550781 L 260.894531 70.875 L 261.332031 71.15625 L 261.855469 71.5 L 262.382812 71.84375 L 262.90625 72.191406 L 263.945312 72.894531 L 264.464844 73.25 L 265.496094 73.96875 L 266.519531 74.695312 L 267.03125 75.0625 L 267.539062 75.429688 L 268.042969 75.804688 L 268.546875 76.175781 L 269.050781 76.554688 L 270.050781 77.3125 L 270.550781 77.695312 L 271.046875 78.082031 L 271.539062 78.472656 L 271.992188 78.828125 Z M 255.21875 64.246094 L 254.023438 63.582031 L 253.460938 63.277344 L 252.894531 62.972656 L 251.761719 62.371094 L 251.191406 62.074219 L 250.050781 61.488281 L 249.476562 61.199219 L 248.902344 60.914062 L 247.746094 60.351562 L 247.167969 60.074219 L 246.585938 59.796875 L 246.003906 59.523438 L 245.421875 59.253906 L 244.25 58.722656 L 243.664062 58.460938 L 243.074219 58.199219 L 242.738281 58.054688 L 241.644531 60.585938 L 241.96875 60.726562 L 242.542969 60.980469 L 243.121094 61.238281 L 243.695312 61.5 L 244.265625 61.761719 L 244.839844 62.023438 L 245.410156 62.292969 L 245.976562 62.5625 L 246.546875 62.835938 L 247.113281 63.109375 L 247.675781 63.386719 L 248.242188 63.667969 L 248.804688 63.953125 L 249.921875 64.523438 L 251.039062 65.109375 L 252.148438 65.703125 L 252.699219 66.003906 L 253.800781 66.613281 L 253.871094 66.652344 Z M 234.976562 54.957031 L 234.695312 54.855469 L 234.089844 54.636719 L 232.871094 54.207031 L 231.03125 53.585938 L 230.417969 53.386719 L 229.800781 53.1875 L 228.566406 52.796875 L 227.949219 52.609375 L 227.328125 52.421875 L 226.085938 52.054688 L 225.460938 51.878906 L 224.835938 51.699219 L 224.210938 51.527344 L 223.585938 51.359375 L 222.957031 51.191406 L 222.328125 51.027344 L 221.699219 50.867188 L 221.660156 50.855469 L 220.996094 53.535156 L 221.019531 53.539062 L 222.253906 53.859375 L 223.480469 54.1875 L 224.707031 54.53125 L 225.316406 54.707031 L 225.929688 54.882812 L 226.535156 55.066406 L 227.144531 55.246094 L 227.75 55.433594 L 228.960938 55.816406 L 229.566406 56.011719 L 230.167969 56.207031 L 230.769531 56.40625 L 231.367188 56.609375 L 231.96875 56.816406 L 232.566406 57.023438 L 233.160156 57.234375 L 233.757812 57.449219 L 234.035156 57.550781 Z M 213.503906 49.050781 L 213.425781 49.035156 L 212.136719 48.800781 L 210.847656 48.574219 L 210.199219 48.464844 L 209.554688 48.363281 L 208.257812 48.160156 L 207.605469 48.066406 L 206.957031 47.972656 L 206.304688 47.882812 L 205.652344 47.796875 L 205 47.714844 L 204.34375 47.632812 L 203.691406 47.554688 L 203.035156 47.480469 L 201.722656 47.339844 L 201.066406 47.277344 L 200.40625 47.214844 L 199.75 47.15625 L 199.699219 47.152344 L 199.472656 49.902344 L 199.511719 49.90625 L 200.15625 49.960938 L 201.445312 50.085938 L 202.089844 50.152344 L 202.730469 50.222656 L 203.375 50.296875 L 204.015625 50.371094 L 204.65625 50.449219 L 205.296875 50.53125 L 205.933594 50.617188 L 206.574219 50.707031 L 207.210938 50.796875 L 207.847656 50.890625 L 208.484375 50.988281 L 209.117188 51.085938 L 209.753906 51.1875 L 210.386719 51.292969 L 211.019531 51.402344 L 211.652344 51.515625 L 212.28125 51.628906 L 212.910156 51.746094 L 212.992188 51.761719 Z M 191.359375 46.683594 L 191.121094 46.679688 L 190.453125 46.664062 L 189.785156 46.652344 L 189.117188 46.644531 L 188.445312 46.640625 L 187.777344 46.636719 L 187.105469 46.640625 L 186.4375 46.644531 L 185.769531 46.652344 L 185.097656 46.664062 L 184.429688 46.679688 L 183.765625 46.695312 L 182.429688 46.742188 L 181.101562 46.796875 L 180.4375 46.832031 L 179.109375 46.910156 L 178.449219 46.953125 L 177.785156 47 L 177.433594 47.023438 L 177.644531 49.777344 L 177.984375 49.75 L 178.632812 49.703125 L 179.28125 49.664062 L 179.933594 49.625 L 180.582031 49.585938 L 181.886719 49.523438 L 182.539062 49.5 L 183.191406 49.472656 L 183.84375 49.453125 L 184.496094 49.4375 L 185.152344 49.421875 L 185.808594 49.410156 L 186.464844 49.402344 L 187.121094 49.398438 L 188.433594 49.398438 L 189.089844 49.402344 L 189.746094 49.410156 L 190.402344 49.421875 L 191.054688 49.4375 L 191.292969 49.441406 Z M 169.117188 47.902344 L 168.597656 47.972656 L 167.945312 48.066406 L 167.296875 48.160156 L 165.351562 48.464844 L 164.707031 48.574219 L 163.417969 48.800781 L 162.128906 49.035156 L 160.847656 49.285156 L 160.207031 49.414062 L 158.925781 49.679688 L 157.652344 49.960938 L 157.019531 50.101562 L 156.382812 50.25 L 155.75 50.398438 L 155.429688 50.476562 L 156.082031 53.15625 L 156.390625 53.082031 L 157.632812 52.792969 L 158.257812 52.652344 L 158.878906 52.515625 L 159.503906 52.378906 L 160.128906 52.246094 L 160.757812 52.117188 L 161.382812 51.992188 L 162.011719 51.867188 L 162.640625 51.746094 L 163.273438 51.628906 L 163.902344 51.515625 L 164.535156 51.402344 L 165.167969 51.292969 L 165.800781 51.1875 L 166.433594 51.085938 L 167.707031 50.890625 L 168.34375 50.796875 L 168.980469 50.707031 L 169.5 50.632812 Z M 147.367188 52.683594 L 146.984375 52.796875 L 145.75 53.1875 L 145.136719 53.386719 L 144.519531 53.585938 L 143.292969 54 L 142.683594 54.207031 L 141.464844 54.636719 L 140.855469 54.855469 L 139.644531 55.300781 L 139.042969 55.527344 L 138.4375 55.757812 L 137.835938 55.988281 L 137.238281 56.222656 L 136.636719 56.460938 L 136.039062 56.699219 L 135.441406 56.945312 L 134.847656 57.191406 L 134.277344 57.429688 L 135.347656 59.972656 L 135.90625 59.738281 L 136.492188 59.496094 L 137.074219 59.257812 L 138.246094 58.789062 L 138.835938 58.558594 L 139.425781 58.332031 L 140.015625 58.109375 L 140.609375 57.886719 L 141.796875 57.449219 L 142.390625 57.234375 L 142.988281 57.023438 L 144.183594 56.609375 L 144.785156 56.40625 L 145.386719 56.207031 L 146.589844 55.816406 L 147.800781 55.433594 L 148.183594 55.316406 Z M 126.671875 60.90625 L 126.652344 60.914062 L 126.078125 61.199219 L 125.503906 61.488281 L 124.933594 61.78125 L 124.359375 62.074219 L 123.792969 62.371094 L 123.222656 62.671875 L 122.65625 62.972656 L 122.09375 63.277344 L 121.527344 63.582031 L 120.964844 63.894531 L 119.847656 64.519531 L 119.289062 64.835938 L 118.734375 65.15625 L 117.625 65.804688 L 116.523438 66.460938 L 115.976562 66.792969 L 115.429688 67.128906 L 114.886719 67.464844 L 114.511719 67.699219 L 115.980469 70.035156 L 116.34375 69.808594 L 116.878906 69.476562 L 117.414062 69.148438 L 117.949219 68.824219 L 118.488281 68.5 L 119.03125 68.179688 L 119.570312 67.859375 L 120.113281 67.546875 L 120.660156 67.230469 L 121.753906 66.613281 L 122.855469 66.003906 L 123.40625 65.703125 L 124.515625 65.109375 L 125.070312 64.816406 L 125.628906 64.523438 L 126.1875 64.238281 L 127.3125 63.667969 L 127.875 63.386719 L 127.894531 63.378906 Z M 107.566406 72.351562 L 107.425781 72.453125 L 106.386719 73.203125 L 105.871094 73.582031 L 105.355469 73.964844 L 104.84375 74.347656 L 104.332031 74.734375 L 103.820312 75.125 L 103.3125 75.515625 L 102.304688 76.304688 L 101.800781 76.703125 L 100.800781 77.507812 L 99.808594 78.320312 L 98.824219 79.140625 L 98.335938 79.558594 L 97.847656 79.972656 L 96.878906 80.816406 L 96.65625 81.011719 L 98.484375 83.078125 L 98.695312 82.890625 L 99.171875 82.476562 L 99.644531 82.066406 L 100.125 81.660156 L 100.605469 81.25 L 101.085938 80.847656 L 101.570312 80.445312 L 102.054688 80.046875 L 102.542969 79.648438 L 103.519531 78.859375 L 104.011719 78.472656 L 104.507812 78.082031 L 105.003906 77.695312 L 105.5 77.3125 L 106.5 76.554688 L 107.003906 76.175781 L 107.507812 75.804688 L 108.015625 75.429688 L 108.523438 75.0625 L 109.035156 74.695312 L 109.175781 74.59375 Z M 90.546875 86.71875 L 89.855469 87.410156 L 89.402344 87.871094 L 88.953125 88.328125 L 88.503906 88.792969 L 88.058594 89.253906 L 87.613281 89.722656 L 86.730469 90.660156 L 86.292969 91.132812 L 85.425781 92.085938 L 84.992188 92.566406 L 84.566406 93.046875 L 84.136719 93.53125 L 83.710938 94.015625 L 83.289062 94.503906 L 82.871094 94.992188 L 82.449219 95.484375 L 81.207031 96.972656 L 81.171875 97.019531 L 83.308594 98.761719 L 83.339844 98.726562 L 83.742188 98.238281 L 84.148438 97.753906 L 84.558594 97.269531 L 84.964844 96.785156 L 85.378906 96.304688 L 85.792969 95.828125 L 86.210938 95.351562 L 86.628906 94.878906 L 87.050781 94.40625 L 87.894531 93.46875 L 88.753906 92.539062 L 89.183594 92.078125 L 90.050781 91.164062 L 90.488281 90.707031 L 90.929688 90.253906 L 91.367188 89.804688 L 91.8125 89.355469 L 92.496094 88.671875 Z M 76.066406 103.632812 L 76.0625 103.636719 L 75.679688 104.164062 L 74.554688 105.757812 L 74.183594 106.292969 L 73.816406 106.828125 L 73.453125 107.367188 L 73.089844 107.910156 L 72.726562 108.449219 L 72.367188 108.996094 L 72.011719 109.542969 L 71.660156 110.089844 L 71.308594 110.640625 L 70.960938 111.191406 L 70.613281 111.746094 L 70.269531 112.304688 L 69.929688 112.859375 L 69.589844 113.421875 L 68.917969 114.546875 L 68.585938 115.113281 L 68.472656 115.3125 L 70.863281 116.691406 L 70.972656 116.5 L 71.296875 115.945312 L 71.953125 114.84375 L 72.285156 114.296875 L 72.957031 113.203125 L 73.296875 112.660156 L 73.636719 112.121094 L 73.980469 111.582031 L 74.328125 111.042969 L 74.675781 110.507812 L 75.027344 109.972656 L 75.738281 108.910156 L 76.097656 108.382812 L 76.457031 107.859375 L 77.183594 106.8125 L 77.550781 106.292969 L 77.921875 105.773438 L 78.292969 105.257812 L 78.300781 105.25 Z M 76.066406 103.632812 " fill-opacity="1" fill-rule="nonzero"/></g><g clip-path="url(#8eed63f9c7)"><g transform="matrix(1, 0, 0, 1, 120, 129)"><g clip-path="url(#d2558056ca)"><g clip-path="url(#93c68e7fb7)"><path fill="#fe5201" d="M 0.578125 0.0742188 L 43.320312 0.0742188 L 43.320312 28.945312 L 0.578125 28.945312 Z M 0.578125 0.0742188 " fill-opacity="1" fill-rule="nonzero"/></g></g></g></g><g clip-path="url(#200c6e1b6a)"><g clip-path="url(#7d6d0abaca)"><path stroke-linecap="butt" transform="matrix(0.75, 0, 0, 0.75, 0.0000045, 229.297427)" fill="none" stroke-linejoin="miter" d="M 44.916664 -0.000736457 L 455.083357 -0.000736457 C 466.9844 -0.000736457 478.401067 4.728431 486.817734 13.145098 C 495.229193 21.561765 499.95836 32.973224 499.95836 44.874266 C 499.95836 56.775309 495.229193 68.191976 486.817734 76.608644 C 478.401067 85.020102 466.9844 89.749269 455.083357 89.749269 L 44.916664 89.749269 C 33.015621 89.749269 21.598954 85.020102 13.182287 76.608644 C 4.770828 68.191976 0.0416607 56.775309 0.0416607 44.874266 C 0.0416607 32.973224 4.770828 21.561765 13.182287 13.145098 C 21.598954 4.728431 33.015621 -0.000736457 44.916664 -0.000736457 Z M 44.916664 -0.000736457 " stroke="#fe5201" stroke-width="8" stroke-opacity="1" stroke-miterlimit="4"/></g></g><g fill="#110eaa" fill-opacity="1"><g transform="translate(74.273437, 275.788971)"><g><path d="M 12.234375 0.796875 C 10.460938 0.796875 8.875 0.546875 7.46875 0.046875 C 6.070312 -0.441406 4.878906 -1.046875 3.890625 -1.765625 C 2.898438 -2.484375 2.132812 -3.265625 1.59375 -4.109375 C 1.0625 -4.953125 0.796875 -5.722656 0.796875 -6.421875 C 0.796875 -7.003906 0.910156 -7.5625 1.140625 -8.09375 C 1.367188 -8.632812 1.679688 -9.101562 2.078125 -9.5 C 2.484375 -9.90625 2.953125 -10.226562 3.484375 -10.46875 C 4.023438 -10.707031 4.601562 -10.828125 5.21875 -10.828125 C 5.613281 -10.828125 5.984375 -10.757812 6.328125 -10.625 C 6.679688 -10.488281 7 -10.332031 7.28125 -10.15625 C 7.5625 -9.988281 7.796875 -9.816406 7.984375 -9.640625 C 8.171875 -9.460938 8.316406 -9.320312 8.421875 -9.21875 C 8.816406 -8.820312 9.304688 -8.390625 9.890625 -7.921875 C 10.484375 -7.453125 11.128906 -7.21875 11.828125 -7.21875 C 12.523438 -7.21875 13.066406 -7.382812 13.453125 -7.71875 C 13.835938 -8.050781 14.03125 -8.421875 14.03125 -8.828125 C 14.03125 -9.253906 13.710938 -9.597656 13.078125 -9.859375 C 12.453125 -10.128906 11.660156 -10.394531 10.703125 -10.65625 C 9.742188 -10.925781 8.710938 -11.25 7.609375 -11.625 C 6.515625 -12 5.488281 -12.519531 4.53125 -13.1875 C 3.570312 -13.851562 2.773438 -14.722656 2.140625 -15.796875 C 1.515625 -16.867188 1.203125 -18.21875 1.203125 -19.84375 C 1.203125 -21 1.460938 -22.113281 1.984375 -23.1875 C 2.503906 -24.269531 3.238281 -25.234375 4.1875 -26.078125 C 5.132812 -26.921875 6.253906 -27.597656 7.546875 -28.109375 C 8.847656 -28.617188 10.273438 -28.875 11.828125 -28.875 C 13.535156 -28.875 15.070312 -28.640625 16.4375 -28.171875 C 17.800781 -27.703125 18.957031 -27.125 19.90625 -26.4375 C 20.851562 -25.757812 21.582031 -25.019531 22.09375 -24.21875 C 22.601562 -23.414062 22.859375 -22.691406 22.859375 -22.046875 C 22.859375 -21.429688 22.734375 -20.859375 22.484375 -20.328125 C 22.242188 -19.796875 21.921875 -19.328125 21.515625 -18.921875 C 21.117188 -18.523438 20.65625 -18.210938 20.125 -17.984375 C 19.59375 -17.753906 19.03125 -17.640625 18.4375 -17.640625 C 18.039062 -17.640625 17.664062 -17.707031 17.3125 -17.84375 C 16.96875 -17.976562 16.65625 -18.128906 16.375 -18.296875 C 16.09375 -18.472656 15.859375 -18.644531 15.671875 -18.8125 C 15.484375 -18.988281 15.335938 -19.132812 15.234375 -19.25 C 15.128906 -19.351562 14.984375 -19.488281 14.796875 -19.65625 C 14.609375 -19.832031 14.378906 -20.007812 14.109375 -20.1875 C 13.847656 -20.363281 13.554688 -20.515625 13.234375 -20.640625 C 12.910156 -20.773438 12.578125 -20.84375 12.234375 -20.84375 C 11.617188 -20.84375 11.160156 -20.707031 10.859375 -20.4375 C 10.566406 -20.175781 10.421875 -19.847656 10.421875 -19.453125 C 10.421875 -19.015625 10.734375 -18.660156 11.359375 -18.390625 C 11.992188 -18.128906 12.789062 -17.863281 13.75 -17.59375 C 14.71875 -17.332031 15.75 -17.015625 16.84375 -16.640625 C 17.9375 -16.265625 18.960938 -15.742188 19.921875 -15.078125 C 20.890625 -14.410156 21.6875 -13.539062 22.3125 -12.46875 C 22.9375 -11.394531 23.25 -10.046875 23.25 -8.421875 C 23.25 -7.210938 22.984375 -6.050781 22.453125 -4.9375 C 21.921875 -3.832031 21.171875 -2.851562 20.203125 -2 C 19.242188 -1.144531 18.085938 -0.46875 16.734375 0.03125 C 15.390625 0.539062 13.890625 0.796875 12.234375 0.796875 Z M 12.234375 0.796875 "/></g></g></g><g fill="#110eaa" fill-opacity="1"><g transform="translate(98.320299, 275.788971)"><g><path d="M 16.03125 0.796875 C 13.925781 0.796875 11.96875 0.414062 10.15625 -0.34375 C 8.351562 -1.101562 6.789062 -2.144531 5.46875 -3.46875 C 4.144531 -4.789062 3.101562 -6.351562 2.34375 -8.15625 C 1.582031 -9.957031 1.203125 -11.914062 1.203125 -14.03125 C 1.203125 -16.144531 1.582031 -18.101562 2.34375 -19.90625 C 3.101562 -21.707031 4.144531 -23.269531 5.46875 -24.59375 C 6.789062 -25.914062 8.351562 -26.957031 10.15625 -27.71875 C 11.96875 -28.488281 13.925781 -28.875 16.03125 -28.875 C 17.875 -28.875 19.566406 -28.597656 21.109375 -28.046875 C 22.648438 -27.492188 23.957031 -26.8125 25.03125 -26 C 26.113281 -25.1875 26.957031 -24.3125 27.5625 -23.375 C 28.164062 -22.4375 28.46875 -21.59375 28.46875 -20.84375 C 28.46875 -20.226562 28.347656 -19.65625 28.109375 -19.125 C 27.867188 -18.59375 27.546875 -18.125 27.140625 -17.71875 C 26.742188 -17.320312 26.273438 -17.007812 25.734375 -16.78125 C 25.203125 -16.550781 24.644531 -16.4375 24.0625 -16.4375 C 23.144531 -16.4375 22.429688 -16.628906 21.921875 -17.015625 C 21.421875 -17.398438 21.0625 -17.742188 20.84375 -18.046875 C 20.632812 -18.335938 20.378906 -18.648438 20.078125 -18.984375 C 19.785156 -19.316406 19.4375 -19.625 19.03125 -19.90625 C 18.632812 -20.1875 18.179688 -20.410156 17.671875 -20.578125 C 17.171875 -20.753906 16.625 -20.84375 16.03125 -20.84375 C 15.226562 -20.84375 14.46875 -20.675781 13.75 -20.34375 C 13.03125 -20.007812 12.390625 -19.539062 11.828125 -18.9375 C 11.265625 -18.34375 10.820312 -17.625 10.5 -16.78125 C 10.175781 -15.9375 10.015625 -15.019531 10.015625 -14.03125 C 10.015625 -13.019531 10.175781 -12.097656 10.5 -11.265625 C 10.820312 -10.429688 11.265625 -9.710938 11.828125 -9.109375 C 12.390625 -8.515625 13.03125 -8.050781 13.75 -7.71875 C 14.46875 -7.382812 15.226562 -7.21875 16.03125 -7.21875 C 16.625 -7.21875 17.171875 -7.300781 17.671875 -7.46875 C 18.179688 -7.644531 18.632812 -7.875 19.03125 -8.15625 C 19.4375 -8.4375 19.785156 -8.742188 20.078125 -9.078125 C 20.378906 -9.410156 20.632812 -9.722656 20.84375 -10.015625 C 21.0625 -10.316406 21.421875 -10.660156 21.921875 -11.046875 C 22.429688 -11.429688 23.144531 -11.625 24.0625 -11.625 C 24.644531 -11.625 25.203125 -11.503906 25.734375 -11.265625 C 26.273438 -11.023438 26.742188 -10.703125 27.140625 -10.296875 C 27.546875 -9.898438 27.867188 -9.429688 28.109375 -8.890625 C 28.347656 -8.359375 28.46875 -7.800781 28.46875 -7.21875 C 28.46875 -6.46875 28.164062 -5.625 27.5625 -4.6875 C 26.957031 -3.75 26.113281 -2.875 25.03125 -2.0625 C 23.957031 -1.25 22.648438 -0.566406 21.109375 -0.015625 C 19.566406 0.523438 17.875 0.796875 16.03125 0.796875 Z M 16.03125 0.796875 "/></g></g></g><g fill="#110eaa" fill-opacity="1"><g transform="translate(127.577313, 275.788971)"><g><path d="M 16.03125 0.796875 C 13.925781 0.796875 11.96875 0.414062 10.15625 -0.34375 C 8.351562 -1.101562 6.789062 -2.144531 5.46875 -3.46875 C 4.144531 -4.789062 3.101562 -6.351562 2.34375 -8.15625 C 1.582031 -9.957031 1.203125 -11.914062 1.203125 -14.03125 C 1.203125 -16.144531 1.582031 -18.101562 2.34375 -19.90625 C 3.101562 -21.707031 4.144531 -23.269531 5.46875 -24.59375 C 6.789062 -25.914062 8.351562 -26.957031 10.15625 -27.71875 C 11.96875 -28.488281 13.925781 -28.875 16.03125 -28.875 C 18.144531 -28.875 20.101562 -28.488281 21.90625 -27.71875 C 23.71875 -26.957031 25.285156 -25.914062 26.609375 -24.59375 C 27.929688 -23.269531 28.972656 -21.707031 29.734375 -19.90625 C 30.492188 -18.101562 30.875 -16.144531 30.875 -14.03125 C 30.875 -11.914062 30.492188 -9.957031 29.734375 -8.15625 C 28.972656 -6.351562 27.929688 -4.789062 26.609375 -3.46875 C 25.285156 -2.144531 23.71875 -1.101562 21.90625 -0.34375 C 20.101562 0.414062 18.144531 0.796875 16.03125 0.796875 Z M 16.03125 -7.21875 C 16.832031 -7.21875 17.59375 -7.382812 18.3125 -7.71875 C 19.039062 -8.050781 19.6875 -8.515625 20.25 -9.109375 C 20.8125 -9.710938 21.25 -10.429688 21.5625 -11.265625 C 21.882812 -12.097656 22.046875 -13.019531 22.046875 -14.03125 C 22.046875 -15.019531 21.882812 -15.9375 21.5625 -16.78125 C 21.25 -17.625 20.8125 -18.34375 20.25 -18.9375 C 19.6875 -19.539062 19.039062 -20.007812 18.3125 -20.34375 C 17.59375 -20.675781 16.832031 -20.84375 16.03125 -20.84375 C 15.226562 -20.84375 14.46875 -20.675781 13.75 -20.34375 C 13.03125 -20.007812 12.390625 -19.539062 11.828125 -18.9375 C 11.265625 -18.34375 10.820312 -17.625 10.5 -16.78125 C 10.175781 -15.9375 10.015625 -15.019531 10.015625 -14.03125 C 10.015625 -13.019531 10.175781 -12.097656 10.5 -11.265625 C 10.820312 -10.429688 11.265625 -9.710938 11.828125 -9.109375 C 12.390625 -8.515625 13.03125 -8.050781 13.75 -7.71875 C 14.46875 -7.382812 15.226562 -7.21875 16.03125 -7.21875 Z M 16.03125 -7.21875 "/></g></g></g><g fill="#110eaa" fill-opacity="1"><g transform="translate(159.6398, 275.788971)"><g><path d="M 16.03125 0.796875 C 13.925781 0.796875 11.96875 0.414062 10.15625 -0.34375 C 8.351562 -1.101562 6.789062 -2.144531 5.46875 -3.46875 C 4.144531 -4.789062 3.101562 -6.351562 2.34375 -8.15625 C 1.582031 -9.957031 1.203125 -11.914062 1.203125 -14.03125 C 1.203125 -16.144531 1.582031 -18.101562 2.34375 -19.90625 C 3.101562 -21.707031 4.144531 -23.269531 5.46875 -24.59375 C 6.789062 -25.914062 8.351562 -26.957031 10.15625 -27.71875 C 11.96875 -28.488281 13.925781 -28.875 16.03125 -28.875 C 18.144531 -28.875 20.101562 -28.488281 21.90625 -27.71875 C 23.71875 -26.957031 25.285156 -25.914062 26.609375 -24.59375 C 27.929688 -23.269531 28.972656 -21.707031 29.734375 -19.90625 C 30.492188 -18.101562 30.875 -16.144531 30.875 -14.03125 C 30.875 -11.914062 30.492188 -9.957031 29.734375 -8.15625 C 28.972656 -6.351562 27.929688 -4.789062 26.609375 -3.46875 C 25.285156 -2.144531 23.71875 -1.101562 21.90625 -0.34375 C 20.101562 0.414062 18.144531 0.796875 16.03125 0.796875 Z M 16.03125 -7.21875 C 16.832031 -7.21875 17.59375 -7.382812 18.3125 -7.71875 C 19.039062 -8.050781 19.6875 -8.515625 20.25 -9.109375 C 20.8125 -9.710938 21.25 -10.429688 21.5625 -11.265625 C 21.882812 -12.097656 22.046875 -13.019531 22.046875 -14.03125 C 22.046875 -15.019531 21.882812 -15.9375 21.5625 -16.78125 C 21.25 -17.625 20.8125 -18.34375 20.25 -18.9375 C 19.6875 -19.539062 19.039062 -20.007812 18.3125 -20.34375 C 17.59375 -20.675781 16.832031 -20.84375 16.03125 -20.84375 C 15.226562 -20.84375 14.46875 -20.675781 13.75 -20.34375 C 13.03125 -20.007812 12.390625 -19.539062 11.828125 -18.9375 C 11.265625 -18.34375 10.820312 -17.625 10.5 -16.78125 C 10.175781 -15.9375 10.015625 -15.019531 10.015625 -14.03125 C 10.015625 -13.019531 10.175781 -12.097656 10.5 -11.265625 C 10.820312 -10.429688 11.265625 -9.710938 11.828125 -9.109375 C 12.390625 -8.515625 13.03125 -8.050781 13.75 -7.71875 C 14.46875 -7.382812 15.226562 -7.21875 16.03125 -7.21875 Z M 16.03125 -7.21875 "/></g></g></g><g fill="#110eaa" fill-opacity="1"><g transform="translate(190.900535, 275.788971)"><g><path d="M 11.625 0 C 10.3125 0 9.25 -0.398438 8.4375 -1.203125 C 7.625 -2.003906 7.21875 -3.003906 7.21875 -4.203125 L 7.21875 -19.640625 L 4.40625 -19.640625 C 3.101562 -19.640625 2.039062 -20.039062 1.21875 -20.84375 C 0.40625 -21.644531 0 -22.648438 0 -23.859375 C 0 -25.054688 0.40625 -26.054688 1.21875 -26.859375 C 2.039062 -27.660156 3.101562 -28.0625 4.40625 -28.0625 L 18.84375 -28.0625 C 20.15625 -28.0625 21.21875 -27.660156 22.03125 -26.859375 C 22.84375 -26.054688 23.25 -25.054688 23.25 -23.859375 C 23.25 -22.648438 22.84375 -21.644531 22.03125 -20.84375 C 21.21875 -20.039062 20.15625 -19.640625 18.84375 -19.640625 L 16.03125 -19.640625 L 16.03125 -4.203125 C 16.03125 -3.003906 15.625 -2.003906 14.8125 -1.203125 C 14 -0.398438 12.9375 0 11.625 0 Z M 11.625 0 "/></g></g></g><g fill="#110eaa" fill-opacity="1"><g transform="translate(214.145831, 275.788971)"><g><path d="M 12.828125 0 C 11.515625 0 10.453125 -0.398438 9.640625 -1.203125 C 8.828125 -2.003906 8.421875 -3.003906 8.421875 -4.203125 L 8.421875 -13.234375 L 1.203125 -20.640625 C 0.960938 -20.859375 0.757812 -21.113281 0.59375 -21.40625 C 0.4375 -21.644531 0.296875 -21.953125 0.171875 -22.328125 C 0.0546875 -22.703125 0 -23.144531 0 -23.65625 C 0 -24.238281 0.113281 -24.796875 0.34375 -25.328125 C 0.570312 -25.867188 0.882812 -26.335938 1.28125 -26.734375 C 1.6875 -27.140625 2.15625 -27.460938 2.6875 -27.703125 C 3.21875 -27.941406 3.789062 -28.0625 4.40625 -28.0625 C 4.914062 -28.0625 5.363281 -27.988281 5.75 -27.84375 C 6.132812 -27.695312 6.476562 -27.53125 6.78125 -27.34375 C 7.09375 -27.125 7.375 -26.894531 7.625 -26.65625 L 12.828125 -21.25 L 18.046875 -26.65625 C 18.285156 -26.894531 18.566406 -27.125 18.890625 -27.34375 C 19.179688 -27.53125 19.519531 -27.695312 19.90625 -27.84375 C 20.289062 -27.988281 20.738281 -28.0625 21.25 -28.0625 C 21.832031 -28.0625 22.390625 -27.941406 22.921875 -27.703125 C 23.460938 -27.460938 23.929688 -27.140625 24.328125 -26.734375 C 24.734375 -26.335938 25.054688 -25.867188 25.296875 -25.328125 C 25.535156 -24.796875 25.65625 -24.238281 25.65625 -23.65625 C 25.65625 -23.144531 25.585938 -22.703125 25.453125 -22.328125 C 25.328125 -21.953125 25.195312 -21.644531 25.0625 -21.40625 C 24.875 -21.113281 24.671875 -20.859375 24.453125 -20.640625 L 17.234375 -13.234375 L 17.234375 -4.203125 C 17.234375 -3.003906 16.828125 -2.003906 16.015625 -1.203125 C 15.203125 -0.398438 14.140625 0 12.828125 0 Z M 12.828125 0 "/></g></g></g><g fill="#110eaa" fill-opacity="1"><g transform="translate(239.795816, 275.788971)"><g/></g></g><g fill="#110eaa" fill-opacity="1"><g transform="translate(247.81144, 275.788971)"><g><path d="M 5.015625 0 C 4.398438 0 3.820312 -0.113281 3.28125 -0.34375 C 2.75 -0.570312 2.28125 -0.882812 1.875 -1.28125 C 1.476562 -1.6875 1.164062 -2.15625 0.9375 -2.6875 C 0.707031 -3.21875 0.59375 -3.789062 0.59375 -4.40625 C 0.59375 -4.914062 0.65625 -5.363281 0.78125 -5.75 C 0.90625 -6.132812 1.046875 -6.476562 1.203125 -6.78125 C 1.359375 -7.09375 1.554688 -7.375 1.796875 -7.625 L 7.421875 -14.234375 L 2.203125 -20.453125 C 1.960938 -20.691406 1.765625 -20.972656 1.609375 -21.296875 C 1.441406 -21.585938 1.296875 -21.925781 1.171875 -22.3125 C 1.054688 -22.695312 1 -23.144531 1 -23.65625 C 1 -24.238281 1.113281 -24.796875 1.34375 -25.328125 C 1.570312 -25.867188 1.882812 -26.335938 2.28125 -26.734375 C 2.6875 -27.140625 3.15625 -27.460938 3.6875 -27.703125 C 4.21875 -27.941406 4.789062 -28.0625 5.40625 -28.0625 C 5.945312 -28.0625 6.421875 -27.988281 6.828125 -27.84375 C 7.242188 -27.695312 7.585938 -27.53125 7.859375 -27.34375 C 8.148438 -27.125 8.40625 -26.894531 8.625 -26.65625 L 13.03125 -21.25 L 17.4375 -26.65625 C 17.65625 -26.894531 17.910156 -27.125 18.203125 -27.34375 C 18.472656 -27.53125 18.804688 -27.695312 19.203125 -27.84375 C 19.609375 -27.988281 20.085938 -28.0625 20.640625 -28.0625 C 21.234375 -28.0625 21.796875 -27.941406 22.328125 -27.703125 C 22.867188 -27.460938 23.335938 -27.140625 23.734375 -26.734375 C 24.140625 -26.335938 24.460938 -25.867188 24.703125 -25.328125 C 24.941406 -24.796875 25.0625 -24.238281 25.0625 -23.65625 C 25.0625 -23.144531 24.992188 -22.695312 24.859375 -22.3125 C 24.722656 -21.925781 24.585938 -21.585938 24.453125 -21.296875 C 24.265625 -20.972656 24.066406 -20.691406 23.859375 -20.453125 L 18.640625 -14.234375 L 24.25 -7.625 C 24.46875 -7.375 24.671875 -7.09375 24.859375 -6.78125 C 24.992188 -6.476562 25.125 -6.132812 25.25 -5.75 C 25.382812 -5.363281 25.453125 -4.914062 25.453125 -4.40625 C 25.453125 -3.789062 25.332031 -3.21875 25.09375 -2.6875 C 24.851562 -2.15625 24.53125 -1.6875 24.125 -1.28125 C 23.726562 -0.882812 23.265625 -0.570312 22.734375 -0.34375 C 22.203125 -0.113281 21.640625 0 21.046875 0 C 20.484375 0 20 -0.0664062 19.59375 -0.203125 C 19.195312 -0.335938 18.867188 -0.5 18.609375 -0.6875 C 18.304688 -0.894531 18.050781 -1.132812 17.84375 -1.40625 L 13.03125 -7.21875 L 8.21875 -1.40625 C 8.007812 -1.132812 7.753906 -0.894531 7.453125 -0.6875 C 7.191406 -0.5 6.851562 -0.335938 6.4375 -0.203125 C 6.019531 -0.0664062 5.546875 0 5.015625 0 Z M 5.015625 0 "/></g></g></g><g fill="#110eaa" fill-opacity="1"><g transform="translate(273.862208, 275.788971)"><g><path d="M 6.8125 0 C 5.5 0 4.4375 -0.398438 3.625 -1.203125 C 2.8125 -2.003906 2.40625 -3.003906 2.40625 -4.203125 L 2.40625 -23.859375 C 2.40625 -25.054688 2.8125 -26.054688 3.625 -26.859375 C 4.4375 -27.660156 5.5 -28.0625 6.8125 -28.0625 L 15.234375 -28.0625 C 16.941406 -28.0625 18.460938 -27.828125 19.796875 -27.359375 C 21.140625 -26.890625 22.269531 -26.234375 23.1875 -25.390625 C 24.113281 -24.554688 24.820312 -23.5625 25.3125 -22.40625 C 25.8125 -21.257812 26.0625 -20.003906 26.0625 -18.640625 C 26.0625 -17.273438 25.8125 -16.019531 25.3125 -14.875 C 24.820312 -13.726562 24.113281 -12.734375 23.1875 -11.890625 C 22.269531 -11.046875 21.140625 -10.390625 19.796875 -9.921875 C 18.460938 -9.453125 16.941406 -9.21875 15.234375 -9.21875 L 11.21875 -9.21875 L 11.21875 -4.203125 C 11.21875 -3.003906 10.8125 -2.003906 10 -1.203125 C 9.1875 -0.398438 8.125 0 6.8125 0 Z M 15.234375 -17.234375 C 15.742188 -17.234375 16.140625 -17.367188 16.421875 -17.640625 C 16.703125 -17.910156 16.84375 -18.242188 16.84375 -18.640625 C 16.84375 -19.046875 16.703125 -19.378906 16.421875 -19.640625 C 16.140625 -19.910156 15.742188 -20.046875 15.234375 -20.046875 L 11.21875 -20.046875 L 11.21875 -17.234375 Z M 15.234375 -17.234375 "/></g></g></g><g fill="#110eaa" fill-opacity="1"><g transform="translate(55.270233, 322.187878)"><g><path d="M 12.171875 -15.015625 C 12.429688 -15.015625 12.601562 -14.957031 12.6875 -14.84375 C 12.78125 -14.726562 12.828125 -14.566406 12.828125 -14.359375 L 12.828125 -12.484375 C 12.828125 -12.285156 12.78125 -12.125 12.6875 -12 C 12.601562 -11.882812 12.429688 -11.828125 12.171875 -11.828125 L 5.265625 -11.828125 L 5.265625 -9.15625 L 11.203125 -9.15625 C 11.460938 -9.15625 11.640625 -9.097656 11.734375 -8.984375 C 11.828125 -8.867188 11.875 -8.703125 11.875 -8.484375 L 11.875 -6.6875 C 11.875 -6.488281 11.828125 -6.328125 11.734375 -6.203125 C 11.640625 -6.085938 11.460938 -6.03125 11.203125 -6.03125 L 5.265625 -6.03125 L 5.265625 -0.6875 C 5.265625 -0.394531 5.21875 -0.207031 5.125 -0.125 C 5.039062 -0.0390625 4.867188 0 4.609375 0 L 2.34375 0 C 2.09375 0 1.921875 -0.0546875 1.828125 -0.171875 C 1.734375 -0.296875 1.6875 -0.457031 1.6875 -0.65625 L 1.6875 -14.359375 C 1.6875 -14.566406 1.734375 -14.726562 1.828125 -14.84375 C 1.921875 -14.957031 2.09375 -15.015625 2.34375 -15.015625 Z M 12.171875 -15.015625 "/></g></g></g><g fill="#110eaa" fill-opacity="1"><g transform="translate(67.818976, 322.187878)"><g><path d="M 14.609375 -0.640625 C 14.671875 -0.503906 14.6875 -0.363281 14.65625 -0.21875 C 14.625 -0.0703125 14.476562 0 14.21875 0 L 11.828125 0 C 11.578125 0 11.390625 -0.046875 11.265625 -0.140625 C 11.148438 -0.234375 11.046875 -0.414062 10.953125 -0.6875 L 10.3125 -2.484375 L 4.71875 -2.484375 L 4.09375 -0.6875 C 4 -0.414062 3.894531 -0.234375 3.78125 -0.140625 C 3.664062 -0.046875 3.476562 0 3.21875 0 L 0.828125 0 C 0.578125 0 0.429688 -0.0703125 0.390625 -0.21875 C 0.359375 -0.363281 0.375 -0.503906 0.4375 -0.640625 L 5.5 -14.3125 C 5.59375 -14.550781 5.710938 -14.726562 5.859375 -14.84375 C 6.003906 -14.957031 6.195312 -15.015625 6.4375 -15.015625 L 8.625 -15.015625 C 8.882812 -15.015625 9.078125 -14.957031 9.203125 -14.84375 C 9.335938 -14.726562 9.457031 -14.550781 9.5625 -14.3125 Z M 7.53125 -10.734375 L 5.828125 -5.6875 L 9.25 -5.6875 Z M 7.53125 -10.734375 "/></g></g></g><g fill="#110eaa" fill-opacity="1"><g transform="translate(82.991999, 322.187878)"><g><path d="M 8.765625 -8.71875 C 9.171875 -8.59375 9.609375 -8.441406 10.078125 -8.265625 C 10.554688 -8.097656 11 -7.863281 11.40625 -7.5625 C 11.820312 -7.269531 12.160156 -6.867188 12.421875 -6.359375 C 12.691406 -5.859375 12.828125 -5.222656 12.828125 -4.453125 C 12.828125 -3.367188 12.5625 -2.472656 12.03125 -1.765625 C 11.507812 -1.054688 10.789062 -0.523438 9.875 -0.171875 C 8.96875 0.171875 7.925781 0.34375 6.75 0.34375 C 6.039062 0.34375 5.320312 0.238281 4.59375 0.03125 C 3.875 -0.175781 3.210938 -0.476562 2.609375 -0.875 C 2.015625 -1.28125 1.53125 -1.785156 1.15625 -2.390625 C 0.789062 -3.003906 0.609375 -3.707031 0.609375 -4.5 C 0.609375 -4.757812 0.65625 -4.929688 0.75 -5.015625 C 0.84375 -5.097656 1.019531 -5.140625 1.28125 -5.140625 L 3.5 -5.140625 C 3.75 -5.140625 3.941406 -5.101562 4.078125 -5.03125 C 4.222656 -4.96875 4.300781 -4.789062 4.3125 -4.5 C 4.332031 -4.34375 4.367188 -4.1875 4.421875 -4.03125 C 4.484375 -3.882812 4.59375 -3.726562 4.75 -3.5625 C 4.976562 -3.289062 5.300781 -3.097656 5.71875 -2.984375 C 6.132812 -2.867188 6.554688 -2.8125 6.984375 -2.8125 C 7.609375 -2.8125 8.132812 -2.910156 8.5625 -3.109375 C 9 -3.304688 9.21875 -3.722656 9.21875 -4.359375 C 9.21875 -4.785156 9.019531 -5.097656 8.625 -5.296875 C 8.226562 -5.492188 7.726562 -5.65625 7.125 -5.78125 C 6.53125 -5.914062 5.90625 -6.082031 5.25 -6.28125 C 4.488281 -6.519531 3.769531 -6.804688 3.09375 -7.140625 C 2.414062 -7.472656 1.867188 -7.925781 1.453125 -8.5 C 1.035156 -9.082031 0.828125 -9.859375 0.828125 -10.828125 C 0.828125 -11.804688 1.085938 -12.628906 1.609375 -13.296875 C 2.128906 -13.960938 2.816406 -14.460938 3.671875 -14.796875 C 4.523438 -15.140625 5.425781 -15.328125 6.375 -15.359375 C 7.101562 -15.359375 7.820312 -15.273438 8.53125 -15.109375 C 9.25 -14.941406 9.898438 -14.675781 10.484375 -14.3125 C 11.078125 -13.957031 11.550781 -13.507812 11.90625 -12.96875 C 12.257812 -12.4375 12.4375 -11.789062 12.4375 -11.03125 C 12.4375 -10.75 12.390625 -10.570312 12.296875 -10.5 C 12.210938 -10.425781 12.039062 -10.390625 11.78125 -10.390625 L 9.546875 -10.390625 C 9.328125 -10.390625 9.179688 -10.453125 9.109375 -10.578125 C 9.046875 -10.710938 8.984375 -10.851562 8.921875 -11 C 8.878906 -11.125 8.820312 -11.234375 8.75 -11.328125 C 8.6875 -11.429688 8.585938 -11.550781 8.453125 -11.6875 C 8.234375 -11.894531 7.941406 -12.046875 7.578125 -12.140625 C 7.210938 -12.242188 6.851562 -12.296875 6.5 -12.296875 C 6.257812 -12.296875 5.976562 -12.257812 5.65625 -12.1875 C 5.34375 -12.113281 5.070312 -11.976562 4.84375 -11.78125 C 4.613281 -11.59375 4.5 -11.328125 4.5 -10.984375 C 4.5 -10.628906 4.671875 -10.328125 5.015625 -10.078125 C 5.367188 -9.835938 5.789062 -9.628906 6.28125 -9.453125 C 6.78125 -9.285156 7.257812 -9.144531 7.71875 -9.03125 C 8.1875 -8.914062 8.535156 -8.8125 8.765625 -8.71875 Z M 8.765625 -8.71875 "/></g></g></g><g fill="#110eaa" fill-opacity="1"><g transform="translate(96.795965, 322.187878)"><g><path d="M 11.84375 -15.015625 C 12.101562 -15.015625 12.28125 -14.957031 12.375 -14.84375 C 12.46875 -14.726562 12.515625 -14.566406 12.515625 -14.359375 L 12.515625 -12.46875 C 12.515625 -12.269531 12.46875 -12.109375 12.375 -11.984375 C 12.28125 -11.859375 12.101562 -11.796875 11.84375 -11.796875 L 8.359375 -11.796875 L 8.359375 -0.65625 C 8.359375 -0.40625 8.300781 -0.234375 8.1875 -0.140625 C 8.070312 -0.046875 7.90625 0 7.6875 0 L 5.4375 0 C 5.238281 0 5.078125 -0.046875 4.953125 -0.140625 C 4.828125 -0.234375 4.765625 -0.40625 4.765625 -0.65625 L 4.765625 -11.796875 L 1.25 -11.796875 C 1 -11.796875 0.828125 -11.859375 0.734375 -11.984375 C 0.640625 -12.109375 0.59375 -12.269531 0.59375 -12.46875 L 0.59375 -14.359375 C 0.59375 -14.566406 0.640625 -14.726562 0.734375 -14.84375 C 0.828125 -14.957031 1 -15.015625 1.25 -15.015625 Z M 11.84375 -15.015625 "/></g></g></g><g fill="#110eaa" fill-opacity="1"><g transform="translate(109.892628, 322.187878)"><g><path d="M 4.5 -3.859375 C 4.707031 -3.859375 4.867188 -3.8125 4.984375 -3.71875 C 5.097656 -3.625 5.15625 -3.453125 5.15625 -3.203125 L 5.15625 -0.65625 C 5.15625 -0.40625 5.097656 -0.234375 4.984375 -0.140625 C 4.867188 -0.046875 4.707031 0 4.5 0 L 1.96875 0 C 1.769531 0 1.609375 -0.046875 1.484375 -0.140625 C 1.359375 -0.234375 1.296875 -0.40625 1.296875 -0.65625 L 1.296875 -3.203125 C 1.296875 -3.453125 1.359375 -3.625 1.484375 -3.71875 C 1.609375 -3.8125 1.769531 -3.859375 1.96875 -3.859375 Z M 4.5 -3.859375 "/></g></g></g><g fill="#110eaa" fill-opacity="1"><g transform="translate(116.349693, 322.187878)"><g/></g></g><g fill="#110eaa" fill-opacity="1"><g transform="translate(122.532959, 322.187878)"><g><path d="M 12.578125 -3.203125 C 12.835938 -3.203125 13.007812 -3.144531 13.09375 -3.03125 C 13.1875 -2.914062 13.234375 -2.75 13.234375 -2.53125 L 13.234375 -0.65625 C 13.234375 -0.457031 13.1875 -0.296875 13.09375 -0.171875 C 13.007812 -0.0546875 12.835938 0 12.578125 0 L 2.34375 0 C 2.09375 0 1.921875 -0.0546875 1.828125 -0.171875 C 1.734375 -0.296875 1.6875 -0.457031 1.6875 -0.65625 L 1.6875 -14.359375 C 1.6875 -14.566406 1.734375 -14.726562 1.828125 -14.84375 C 1.921875 -14.957031 2.09375 -15.015625 2.34375 -15.015625 L 12.1875 -15.015625 C 12.445312 -15.015625 12.625 -14.957031 12.71875 -14.84375 C 12.8125 -14.726562 12.859375 -14.566406 12.859375 -14.359375 L 12.859375 -12.46875 C 12.859375 -12.269531 12.8125 -12.109375 12.71875 -11.984375 C 12.625 -11.859375 12.445312 -11.796875 12.1875 -11.796875 L 5.296875 -11.796875 L 5.296875 -9.3125 L 11.40625 -9.3125 C 11.664062 -9.3125 11.84375 -9.253906 11.9375 -9.140625 C 12.03125 -9.023438 12.078125 -8.863281 12.078125 -8.65625 L 12.078125 -6.875 C 12.078125 -6.675781 12.03125 -6.515625 11.9375 -6.390625 C 11.84375 -6.265625 11.664062 -6.203125 11.40625 -6.203125 L 5.296875 -6.203125 L 5.296875 -3.203125 Z M 12.578125 -3.203125 "/></g></g></g><g fill="#110eaa" fill-opacity="1"><g transform="translate(136.838885, 322.187878)"><g><path d="M 11.84375 -3.203125 C 12.101562 -3.203125 12.28125 -3.144531 12.375 -3.03125 C 12.46875 -2.914062 12.515625 -2.75 12.515625 -2.53125 L 12.515625 -0.65625 C 12.515625 -0.457031 12.46875 -0.296875 12.375 -0.171875 C 12.28125 -0.0546875 12.101562 0 11.84375 0 L 2.34375 0 C 2.09375 0 1.921875 -0.0546875 1.828125 -0.171875 C 1.734375 -0.296875 1.6875 -0.457031 1.6875 -0.65625 L 1.6875 -14.359375 C 1.6875 -14.617188 1.742188 -14.789062 1.859375 -14.875 C 1.984375 -14.96875 2.144531 -15.015625 2.34375 -15.015625 L 4.609375 -15.015625 C 4.828125 -15.015625 4.988281 -14.96875 5.09375 -14.875 C 5.207031 -14.789062 5.265625 -14.617188 5.265625 -14.359375 L 5.265625 -3.203125 Z M 11.84375 -3.203125 "/></g></g></g><g fill="#110eaa" fill-opacity="1"><g transform="translate(150.118071, 322.187878)"><g><path d="M 8.21875 -3.125 C 8.476562 -3.125 8.648438 -3.066406 8.734375 -2.953125 C 8.828125 -2.835938 8.875 -2.675781 8.875 -2.46875 L 8.875 -0.65625 C 8.875 -0.457031 8.828125 -0.296875 8.734375 -0.171875 C 8.648438 -0.0546875 8.476562 0 8.21875 0 L 1.75 0 C 1.5 0 1.328125 -0.0546875 1.234375 -0.171875 C 1.140625 -0.296875 1.09375 -0.457031 1.09375 -0.65625 L 1.09375 -2.46875 C 1.09375 -2.675781 1.140625 -2.835938 1.234375 -2.953125 C 1.328125 -3.066406 1.5 -3.125 1.75 -3.125 L 3.203125 -3.125 L 3.203125 -11.84375 L 1.796875 -11.84375 C 1.546875 -11.84375 1.375 -11.90625 1.28125 -12.03125 C 1.1875 -12.15625 1.140625 -12.316406 1.140625 -12.515625 L 1.140625 -14.359375 C 1.140625 -14.566406 1.1875 -14.726562 1.28125 -14.84375 C 1.375 -14.957031 1.546875 -15.015625 1.796875 -15.015625 L 8.15625 -15.015625 C 8.40625 -15.015625 8.578125 -14.957031 8.671875 -14.84375 C 8.765625 -14.726562 8.8125 -14.566406 8.8125 -14.359375 L 8.8125 -12.515625 C 8.8125 -12.316406 8.765625 -12.15625 8.671875 -12.03125 C 8.578125 -11.90625 8.40625 -11.84375 8.15625 -11.84375 L 6.78125 -11.84375 L 6.78125 -3.125 Z M 8.21875 -3.125 "/></g></g></g><g fill="#110eaa" fill-opacity="1"><g transform="translate(160.248586, 322.187878)"><g><path d="M 11.84375 -15.015625 C 12.101562 -15.015625 12.28125 -14.957031 12.375 -14.84375 C 12.46875 -14.726562 12.515625 -14.566406 12.515625 -14.359375 L 12.515625 -12.46875 C 12.515625 -12.269531 12.46875 -12.109375 12.375 -11.984375 C 12.28125 -11.859375 12.101562 -11.796875 11.84375 -11.796875 L 8.359375 -11.796875 L 8.359375 -0.65625 C 8.359375 -0.40625 8.300781 -0.234375 8.1875 -0.140625 C 8.070312 -0.046875 7.90625 0 7.6875 0 L 5.4375 0 C 5.238281 0 5.078125 -0.046875 4.953125 -0.140625 C 4.828125 -0.234375 4.765625 -0.40625 4.765625 -0.65625 L 4.765625 -11.796875 L 1.25 -11.796875 C 1 -11.796875 0.828125 -11.859375 0.734375 -11.984375 C 0.640625 -12.109375 0.59375 -12.269531 0.59375 -12.46875 L 0.59375 -14.359375 C 0.59375 -14.566406 0.640625 -14.726562 0.734375 -14.84375 C 0.828125 -14.957031 1 -15.015625 1.25 -15.015625 Z M 11.84375 -15.015625 "/></g></g></g><g fill="#110eaa" fill-opacity="1"><g transform="translate(173.34525, 322.187878)"><g><path d="M 12.578125 -3.203125 C 12.835938 -3.203125 13.007812 -3.144531 13.09375 -3.03125 C 13.1875 -2.914062 13.234375 -2.75 13.234375 -2.53125 L 13.234375 -0.65625 C 13.234375 -0.457031 13.1875 -0.296875 13.09375 -0.171875 C 13.007812 -0.0546875 12.835938 0 12.578125 0 L 2.34375 0 C 2.09375 0 1.921875 -0.0546875 1.828125 -0.171875 C 1.734375 -0.296875 1.6875 -0.457031 1.6875 -0.65625 L 1.6875 -14.359375 C 1.6875 -14.566406 1.734375 -14.726562 1.828125 -14.84375 C 1.921875 -14.957031 2.09375 -15.015625 2.34375 -15.015625 L 12.1875 -15.015625 C 12.445312 -15.015625 12.625 -14.957031 12.71875 -14.84375 C 12.8125 -14.726562 12.859375 -14.566406 12.859375 -14.359375 L 12.859375 -12.46875 C 12.859375 -12.269531 12.8125 -12.109375 12.71875 -11.984375 C 12.625 -11.859375 12.445312 -11.796875 12.1875 -11.796875 L 5.296875 -11.796875 L 5.296875 -9.3125 L 11.40625 -9.3125 C 11.664062 -9.3125 11.84375 -9.253906 11.9375 -9.140625 C 12.03125 -9.023438 12.078125 -8.863281 12.078125 -8.65625 L 12.078125 -6.875 C 12.078125 -6.675781 12.03125 -6.515625 11.9375 -6.390625 C 11.84375 -6.265625 11.664062 -6.203125 11.40625 -6.203125 L 5.296875 -6.203125 L 5.296875 -3.203125 Z M 12.578125 -3.203125 "/></g></g></g><g fill="#110eaa" fill-opacity="1"><g transform="translate(187.651176, 322.187878)"><g><path d="M 4.5 -3.859375 C 4.707031 -3.859375 4.867188 -3.8125 4.984375 -3.71875 C 5.097656 -3.625 5.15625 -3.453125 5.15625 -3.203125 L 5.15625 -0.65625 C 5.15625 -0.40625 5.097656 -0.234375 4.984375 -0.140625 C 4.867188 -0.046875 4.707031 0 4.5 0 L 1.96875 0 C 1.769531 0 1.609375 -0.046875 1.484375 -0.140625 C 1.359375 -0.234375 1.296875 -0.40625 1.296875 -0.65625 L 1.296875 -3.203125 C 1.296875 -3.453125 1.359375 -3.625 1.484375 -3.71875 C 1.609375 -3.8125 1.769531 -3.859375 1.96875 -3.859375 Z M 4.5 -3.859375 "/></g></g></g><g fill="#110eaa" fill-opacity="1"><g transform="translate(194.108241, 322.187878)"><g/></g></g><g fill="#110eaa" fill-opacity="1"><g transform="translate(200.291507, 322.187878)"><g><path d="M 12.578125 -3.203125 C 12.835938 -3.203125 13.007812 -3.144531 13.09375 -3.03125 C 13.1875 -2.914062 13.234375 -2.75 13.234375 -2.53125 L 13.234375 -0.65625 C 13.234375 -0.457031 13.1875 -0.296875 13.09375 -0.171875 C 13.007812 -0.0546875 12.835938 0 12.578125 0 L 2.34375 0 C 2.09375 0 1.921875 -0.0546875 1.828125 -0.171875 C 1.734375 -0.296875 1.6875 -0.457031 1.6875 -0.65625 L 1.6875 -14.359375 C 1.6875 -14.566406 1.734375 -14.726562 1.828125 -14.84375 C 1.921875 -14.957031 2.09375 -15.015625 2.34375 -15.015625 L 12.1875 -15.015625 C 12.445312 -15.015625 12.625 -14.957031 12.71875 -14.84375 C 12.8125 -14.726562 12.859375 -14.566406 12.859375 -14.359375 L 12.859375 -12.46875 C 12.859375 -12.269531 12.8125 -12.109375 12.71875 -11.984375 C 12.625 -11.859375 12.445312 -11.796875 12.1875 -11.796875 L 5.296875 -11.796875 L 5.296875 -9.3125 L 11.40625 -9.3125 C 11.664062 -9.3125 11.84375 -9.253906 11.9375 -9.140625 C 12.03125 -9.023438 12.078125 -8.863281 12.078125 -8.65625 L 12.078125 -6.875 C 12.078125 -6.675781 12.03125 -6.515625 11.9375 -6.390625 C 11.84375 -6.265625 11.664062 -6.203125 11.40625 -6.203125 L 5.296875 -6.203125 L 5.296875 -3.203125 Z M 12.578125 -3.203125 "/></g></g></g><g fill="#110eaa" fill-opacity="1"><g transform="translate(214.597433, 322.187878)"><g><path d="M 12.171875 -15.015625 C 12.429688 -15.015625 12.601562 -14.957031 12.6875 -14.84375 C 12.78125 -14.726562 12.828125 -14.566406 12.828125 -14.359375 L 12.828125 -12.484375 C 12.828125 -12.285156 12.78125 -12.125 12.6875 -12 C 12.601562 -11.882812 12.429688 -11.828125 12.171875 -11.828125 L 5.265625 -11.828125 L 5.265625 -9.15625 L 11.203125 -9.15625 C 11.460938 -9.15625 11.640625 -9.097656 11.734375 -8.984375 C 11.828125 -8.867188 11.875 -8.703125 11.875 -8.484375 L 11.875 -6.6875 C 11.875 -6.488281 11.828125 -6.328125 11.734375 -6.203125 C 11.640625 -6.085938 11.460938 -6.03125 11.203125 -6.03125 L 5.265625 -6.03125 L 5.265625 -0.6875 C 5.265625 -0.394531 5.21875 -0.207031 5.125 -0.125 C 5.039062 -0.0390625 4.867188 0 4.609375 0 L 2.34375 0 C 2.09375 0 1.921875 -0.0546875 1.828125 -0.171875 C 1.734375 -0.296875 1.6875 -0.457031 1.6875 -0.65625 L 1.6875 -14.359375 C 1.6875 -14.566406 1.734375 -14.726562 1.828125 -14.84375 C 1.921875 -14.957031 2.09375 -15.015625 2.34375 -15.015625 Z M 12.171875 -15.015625 "/></g></g></g><g fill="#110eaa" fill-opacity="1"><g transform="translate(228.332952, 322.187878)"><g><path d="M 12.171875 -15.015625 C 12.429688 -15.015625 12.601562 -14.957031 12.6875 -14.84375 C 12.78125 -14.726562 12.828125 -14.566406 12.828125 -14.359375 L 12.828125 -12.484375 C 12.828125 -12.285156 12.78125 -12.125 12.6875 -12 C 12.601562 -11.882812 12.429688 -11.828125 12.171875 -11.828125 L 5.265625 -11.828125 L 5.265625 -9.15625 L 11.203125 -9.15625 C 11.460938 -9.15625 11.640625 -9.097656 11.734375 -8.984375 C 11.828125 -8.867188 11.875 -8.703125 11.875 -8.484375 L 11.875 -6.6875 C 11.875 -6.488281 11.828125 -6.328125 11.734375 -6.203125 C 11.640625 -6.085938 11.460938 -6.03125 11.203125 -6.03125 L 5.265625 -6.03125 L 5.265625 -0.6875 C 5.265625 -0.394531 5.21875 -0.207031 5.125 -0.125 C 5.039062 -0.0390625 4.867188 0 4.609375 0 L 2.34375 0 C 2.09375 0 1.921875 -0.0546875 1.828125 -0.171875 C 1.734375 -0.296875 1.6875 -0.457031 1.6875 -0.65625 L 1.6875 -14.359375 C 1.6875 -14.566406 1.734375 -14.726562 1.828125 -14.84375 C 1.921875 -14.957031 2.09375 -15.015625 2.34375 -15.015625 Z M 12.171875 -15.015625 "/></g></g></g><g fill="#110eaa" fill-opacity="1"><g transform="translate(242.06847, 322.187878)"><g><path d="M 8.21875 -3.125 C 8.476562 -3.125 8.648438 -3.066406 8.734375 -2.953125 C 8.828125 -2.835938 8.875 -2.675781 8.875 -2.46875 L 8.875 -0.65625 C 8.875 -0.457031 8.828125 -0.296875 8.734375 -0.171875 C 8.648438 -0.0546875 8.476562 0 8.21875 0 L 1.75 0 C 1.5 0 1.328125 -0.0546875 1.234375 -0.171875 C 1.140625 -0.296875 1.09375 -0.457031 1.09375 -0.65625 L 1.09375 -2.46875 C 1.09375 -2.675781 1.140625 -2.835938 1.234375 -2.953125 C 1.328125 -3.066406 1.5 -3.125 1.75 -3.125 L 3.203125 -3.125 L 3.203125 -11.84375 L 1.796875 -11.84375 C 1.546875 -11.84375 1.375 -11.90625 1.28125 -12.03125 C 1.1875 -12.15625 1.140625 -12.316406 1.140625 -12.515625 L 1.140625 -14.359375 C 1.140625 -14.566406 1.1875 -14.726562 1.28125 -14.84375 C 1.375 -14.957031 1.546875 -15.015625 1.796875 -15.015625 L 8.15625 -15.015625 C 8.40625 -15.015625 8.578125 -14.957031 8.671875 -14.84375 C 8.765625 -14.726562 8.8125 -14.566406 8.8125 -14.359375 L 8.8125 -12.515625 C 8.8125 -12.316406 8.765625 -12.15625 8.671875 -12.03125 C 8.578125 -11.90625 8.40625 -11.84375 8.15625 -11.84375 L 6.78125 -11.84375 L 6.78125 -3.125 Z M 8.21875 -3.125 "/></g></g></g><g fill="#110eaa" fill-opacity="1"><g transform="translate(252.198986, 322.187878)"><g><path d="M 13.265625 -4.453125 C 13.265625 -3.722656 13.085938 -3.0625 12.734375 -2.46875 C 12.390625 -1.875 11.929688 -1.363281 11.359375 -0.9375 C 10.785156 -0.519531 10.148438 -0.203125 9.453125 0.015625 C 8.753906 0.234375 8.046875 0.34375 7.328125 0.34375 C 6.640625 0.34375 5.9375 0.238281 5.21875 0.03125 C 4.507812 -0.175781 3.847656 -0.488281 3.234375 -0.90625 C 2.628906 -1.320312 2.140625 -1.851562 1.765625 -2.5 C 1.390625 -3.144531 1.203125 -3.914062 1.203125 -4.8125 L 1.203125 -10.203125 C 1.203125 -11.097656 1.390625 -11.867188 1.765625 -12.515625 C 2.140625 -13.160156 2.628906 -13.691406 3.234375 -14.109375 C 3.847656 -14.535156 4.507812 -14.847656 5.21875 -15.046875 C 5.9375 -15.253906 6.640625 -15.359375 7.328125 -15.359375 C 8.273438 -15.359375 9.179688 -15.195312 10.046875 -14.875 C 10.910156 -14.5625 11.640625 -14.082031 12.234375 -13.4375 C 12.828125 -12.800781 13.171875 -12 13.265625 -11.03125 C 13.265625 -10.75 13.207031 -10.566406 13.09375 -10.484375 C 12.988281 -10.398438 12.8125 -10.359375 12.5625 -10.359375 L 10.359375 -10.359375 C 10.117188 -10.359375 9.96875 -10.441406 9.90625 -10.609375 C 9.84375 -10.773438 9.765625 -10.929688 9.671875 -11.078125 C 9.429688 -11.453125 9.132812 -11.726562 8.78125 -11.90625 C 8.4375 -12.082031 7.953125 -12.171875 7.328125 -12.171875 C 6.578125 -12.171875 5.96875 -11.96875 5.5 -11.5625 C 5.03125 -11.15625 4.796875 -10.597656 4.796875 -9.890625 L 4.796875 -5.140625 C 4.796875 -4.410156 5.03125 -3.847656 5.5 -3.453125 C 5.96875 -3.054688 6.578125 -2.859375 7.328125 -2.859375 C 7.953125 -2.859375 8.484375 -2.976562 8.921875 -3.21875 C 9.367188 -3.457031 9.632812 -3.851562 9.71875 -4.40625 C 9.75 -4.632812 9.796875 -4.828125 9.859375 -4.984375 C 9.929688 -5.148438 10.09375 -5.234375 10.34375 -5.234375 L 12.578125 -5.234375 C 13.035156 -5.234375 13.265625 -4.972656 13.265625 -4.453125 Z M 13.265625 -4.453125 "/></g></g></g><g fill="#110eaa" fill-opacity="1"><g transform="translate(266.618998, 322.187878)"><g><path d="M 8.21875 -3.125 C 8.476562 -3.125 8.648438 -3.066406 8.734375 -2.953125 C 8.828125 -2.835938 8.875 -2.675781 8.875 -2.46875 L 8.875 -0.65625 C 8.875 -0.457031 8.828125 -0.296875 8.734375 -0.171875 C 8.648438 -0.0546875 8.476562 0 8.21875 0 L 1.75 0 C 1.5 0 1.328125 -0.0546875 1.234375 -0.171875 C 1.140625 -0.296875 1.09375 -0.457031 1.09375 -0.65625 L 1.09375 -2.46875 C 1.09375 -2.675781 1.140625 -2.835938 1.234375 -2.953125 C 1.328125 -3.066406 1.5 -3.125 1.75 -3.125 L 3.203125 -3.125 L 3.203125 -11.84375 L 1.796875 -11.84375 C 1.546875 -11.84375 1.375 -11.90625 1.28125 -12.03125 C 1.1875 -12.15625 1.140625 -12.316406 1.140625 -12.515625 L 1.140625 -14.359375 C 1.140625 -14.566406 1.1875 -14.726562 1.28125 -14.84375 C 1.375 -14.957031 1.546875 -15.015625 1.796875 -15.015625 L 8.15625 -15.015625 C 8.40625 -15.015625 8.578125 -14.957031 8.671875 -14.84375 C 8.765625 -14.726562 8.8125 -14.566406 8.8125 -14.359375 L 8.8125 -12.515625 C 8.8125 -12.316406 8.765625 -12.15625 8.671875 -12.03125 C 8.578125 -11.90625 8.40625 -11.84375 8.15625 -11.84375 L 6.78125 -11.84375 L 6.78125 -3.125 Z M 8.21875 -3.125 "/></g></g></g><g fill="#110eaa" fill-opacity="1"><g transform="translate(276.749514, 322.187878)"><g><path d="M 12.578125 -3.203125 C 12.835938 -3.203125 13.007812 -3.144531 13.09375 -3.03125 C 13.1875 -2.914062 13.234375 -2.75 13.234375 -2.53125 L 13.234375 -0.65625 C 13.234375 -0.457031 13.1875 -0.296875 13.09375 -0.171875 C 13.007812 -0.0546875 12.835938 0 12.578125 0 L 2.34375 0 C 2.09375 0 1.921875 -0.0546875 1.828125 -0.171875 C 1.734375 -0.296875 1.6875 -0.457031 1.6875 -0.65625 L 1.6875 -14.359375 C 1.6875 -14.566406 1.734375 -14.726562 1.828125 -14.84375 C 1.921875 -14.957031 2.09375 -15.015625 2.34375 -15.015625 L 12.1875 -15.015625 C 12.445312 -15.015625 12.625 -14.957031 12.71875 -14.84375 C 12.8125 -14.726562 12.859375 -14.566406 12.859375 -14.359375 L 12.859375 -12.46875 C 12.859375 -12.269531 12.8125 -12.109375 12.71875 -11.984375 C 12.625 -11.859375 12.445312 -11.796875 12.1875 -11.796875 L 5.296875 -11.796875 L 5.296875 -9.3125 L 11.40625 -9.3125 C 11.664062 -9.3125 11.84375 -9.253906 11.9375 -9.140625 C 12.03125 -9.023438 12.078125 -8.863281 12.078125 -8.65625 L 12.078125 -6.875 C 12.078125 -6.675781 12.03125 -6.515625 11.9375 -6.390625 C 11.84375 -6.265625 11.664062 -6.203125 11.40625 -6.203125 L 5.296875 -6.203125 L 5.296875 -3.203125 Z M 12.578125 -3.203125 "/></g></g></g><g fill="#110eaa" fill-opacity="1"><g transform="translate(291.055452, 322.187878)"><g><path d="M 13.21875 -15.015625 C 13.425781 -15.015625 13.585938 -14.96875 13.703125 -14.875 C 13.816406 -14.789062 13.875 -14.617188 13.875 -14.359375 L 13.875 -0.65625 C 13.875 -0.457031 13.828125 -0.296875 13.734375 -0.171875 C 13.648438 -0.0546875 13.476562 0 13.21875 0 L 11.140625 0 C 10.847656 0 10.640625 -0.0703125 10.515625 -0.21875 C 10.398438 -0.363281 10.265625 -0.550781 10.109375 -0.78125 L 5.265625 -8.609375 L 5.265625 -0.65625 C 5.265625 -0.40625 5.207031 -0.234375 5.09375 -0.140625 C 4.988281 -0.046875 4.828125 0 4.609375 0 L 2.34375 0 C 2.144531 0 1.984375 -0.046875 1.859375 -0.140625 C 1.742188 -0.234375 1.6875 -0.40625 1.6875 -0.65625 L 1.6875 -14.359375 C 1.6875 -14.566406 1.734375 -14.726562 1.828125 -14.84375 C 1.921875 -14.957031 2.09375 -15.015625 2.34375 -15.015625 L 4.5 -15.015625 C 4.789062 -15.015625 4.992188 -14.941406 5.109375 -14.796875 C 5.234375 -14.660156 5.375 -14.476562 5.53125 -14.25 L 10.359375 -6.4375 L 10.359375 -14.359375 C 10.359375 -14.617188 10.421875 -14.789062 10.546875 -14.875 C 10.671875 -14.96875 10.832031 -15.015625 11.03125 -15.015625 Z M 13.21875 -15.015625 "/></g></g></g><g fill="#110eaa" fill-opacity="1"><g transform="translate(306.61628, 322.187878)"><g><path d="M 11.84375 -15.015625 C 12.101562 -15.015625 12.28125 -14.957031 12.375 -14.84375 C 12.46875 -14.726562 12.515625 -14.566406 12.515625 -14.359375 L 12.515625 -12.46875 C 12.515625 -12.269531 12.46875 -12.109375 12.375 -11.984375 C 12.28125 -11.859375 12.101562 -11.796875 11.84375 -11.796875 L 8.359375 -11.796875 L 8.359375 -0.65625 C 8.359375 -0.40625 8.300781 -0.234375 8.1875 -0.140625 C 8.070312 -0.046875 7.90625 0 7.6875 0 L 5.4375 0 C 5.238281 0 5.078125 -0.046875 4.953125 -0.140625 C 4.828125 -0.234375 4.765625 -0.40625 4.765625 -0.65625 L 4.765625 -11.796875 L 1.25 -11.796875 C 1 -11.796875 0.828125 -11.859375 0.734375 -11.984375 C 0.640625 -12.109375 0.59375 -12.269531 0.59375 -12.46875 L 0.59375 -14.359375 C 0.59375 -14.566406 0.640625 -14.726562 0.734375 -14.84375 C 0.828125 -14.957031 1 -15.015625 1.25 -15.015625 Z M 11.84375 -15.015625 "/></g></g></g></svg>